# Cube with colored vertices
# Vertices (x, y, z)
v -0.5 -0.5 -0.5
v -0.5  0.5 -0.5
v  0.5  0.5 -0.5
v  0.5 -0.5 -0.5
v -0.5 -0.5  0.5
v -0.5  0.5  0.5
v  0.5  0.5  0.5
v  0.5 -0.5  0.5

# Vertex colors (r, g, b) - stored as texture coordinates
vt 1.0 0.0 0.0
vt 0.0 1.0 0.0
vt 0.0 0.0 1.0
vt 1.0 1.0 0.0
vt 1.0 0.0 1.0
vt 0.0 1.0 1.0
vt 0.5 0.5 1.0
vt 1.0 0.5 0.5

# Normals
vn  0.0  0.0 -1.0
vn  0.0  0.0  1.0
vn  0.0 -1.0  0.0
vn  0.0  1.0  0.0
vn -1.0  0.0  0.0
vn  1.0  0.0  0.0

# Faces (front, back, bottom, top, left, right)
# Format: v/vt/vn where v = vertex, vt = texture coord/color, vn = normal
# Front face
f 1/1/1 2/2/1 3/3/1
f 1/1/1 3/3/1 4/4/1
# Back face
f 5/5/2 8/6/2 7/7/2
f 5/5/2 7/7/2 6/8/2
# Bottom face
f 1/1/3 4/4/3 8/6/3
f 1/1/3 8/6/3 5/5/3
# Top face
f 2/2/4 6/8/4 7/7/4
f 2/2/4 7/7/4 3/3/4
# Left face
f 1/1/5 5/5/5 6/8/5
f 1/1/5 6/8/5 2/2/5
# Right face
f 4/4/6 3/3/6 7/7/6
f 4/4/6 7/7/6 8/6/6
